<?xml version="1.0" encoding="utf-8"?>
<!-- Generator: Adobe Illustrator 25.0.0, SVG Export Plug-In . SVG Version: 6.00 Build 0)  -->
<svg version="1.1" id="Layer_1" xmlns="http://www.w3.org/2000/svg" xmlns:xlink="http://www.w3.org/1999/xlink" x="0px" y="0px"
	 viewBox="0 0 243.5 255.4" style="enable-background:new 0 0 243.5 255.4;" xml:space="preserve">
<style type="text/css">
	.st0{fill:#DC2972;}
	.st1{fill:none;stroke:#000000;stroke-width:11;}
	.st2{fill:none;stroke:#000000;stroke-width:11;stroke-miterlimit:10;}
	.st3{fill:none;stroke:#000000;stroke-width:2;stroke-miterlimit:10;}
	.st4{fill:none;stroke:#000000;stroke-width:2;stroke-miterlimit:10;stroke-dasharray:4.933,4.933;}
	.st5{fill:none;stroke:#86B40D;stroke-width:2;stroke-miterlimit:10;}
	.st6{fill:#86B40D;}
	.st7{font-family:'Roboto-Medium';}
	.st8{font-size:16px;}
	.st9{fill:#DC2972;stroke:#DC2972;stroke-width:5;stroke-linecap:round;stroke-linejoin:round;stroke-miterlimit:10;}
	.st10{fill:none;stroke:#FFFFFF;stroke-width:5;stroke-linecap:round;stroke-linejoin:round;stroke-miterlimit:10;}
</style>
<g id="ZithoogteMannetje" transform="translate(-627.391 -224.694)">
	<circle id="Ellipse_30" class="st0" cx="763.1" cy="249.7" r="25"/>
	<path id="Path_64" class="st0" d="M768.8,393.9h-12.2c-10.1,0-18.4-11.9-18.4-26.6v-64c0-14.7,8.2-26.6,18.4-26.6h12.2
		c10.1,0,18.4,11.9,18.4,26.6v64C787.1,382,778.9,393.9,768.8,393.9z"/>
	<path id="Path_65" class="st0" d="M733.2,362.5h95.1c11.8,0,21.3,7.4,21.3,16.5v15.8h-91.6c-13.7,0-24.9-8.6-24.9-19.2V362.5z"/>
	<path id="Path_66" class="st0" d="M833.7,362.5h5c6.6,0,12,7.3,12,16.2V447c0,9-5.4,16.2-12,16.2h-5c-6.6,0-12-7.3-12-16.2v-68.3
		C821.8,369.7,827.1,362.5,833.7,362.5z"/>
	<path id="Path_102" class="st1" d="M733.2,225v170"/>
	<line id="Line_24" class="st2" x1="822.3" y1="399.8" x2="727.8" y2="399.8"/>
	<line id="Line_25" class="st2" x1="774.5" y1="397.8" x2="775.4" y2="478"/>
	<g id="Group_28" transform="translate(645.651 393.903)">
		<g id="Group_27">
			<line id="Line_26" class="st3" x1="77.7" y1="0" x2="75.3" y2="0"/>
			<line id="Line_27" class="st4" x1="70.4" y1="0" x2="4.9" y2="0"/>
			<line id="Line_28" class="st3" x1="2.5" y1="0" x2="0" y2="0"/>
		</g>
	</g>
	<g id="Group_30" transform="translate(644.651 225.984)">
		<g id="Group_29">
			<line id="Line_29" class="st3" x1="77.7" y1="0" x2="75.3" y2="0"/>
			<line id="Line_30" class="st4" x1="70.4" y1="0" x2="4.9" y2="0"/>
			<line id="Line_31" class="st3" x1="2.5" y1="0" x2="0" y2="0"/>
		</g>
	</g>
	<g id="Group_34" transform="translate(696.832 207.12)">
		<g id="Group_33" transform="translate(0 20.438)">
			<line id="Line_32" class="st5" x1="5.9" y1="1.3" x2="6.9" y2="164.1"/>
			<g id="Group_31">
				<path id="Path_67" class="st6" d="M0.3,8.5c0.3,0.2,0.6,0.1,0.8-0.2l4.8-6.8l4.9,6.8c0.2,0.2,0.5,0.3,0.8,0.2
					c0.2-0.1,0.3-0.4,0.2-0.7c0,0,0,0,0-0.1L6.4,0.2C6.3,0.1,6.1,0,5.9,0C5.7,0,5.5,0.1,5.4,0.2L0.1,7.8C0,7.9,0,8,0,8.1
					C0,8.2,0.1,8.4,0.3,8.5z"/>
			</g>
			<g id="Group_32" transform="translate(0.886 156.779)">
				<path id="Path_68" class="st6" d="M0.3,0.1C0.5,0,0.9,0,1.1,0.3L6,7.1l4.8-6.8C11,0,11.3-0.1,11.6,0.1c0.2,0.1,0.3,0.4,0.2,0.7
					c0,0,0,0,0,0.1L6.5,8.3C6.3,8.6,5.9,8.7,5.6,8.5c0,0-0.1-0.1-0.1-0.1L0.1,0.9C0,0.8,0,0.7,0,0.6C0,0.4,0.1,0.2,0.3,0.1z"/>
			</g>
		</g>
	</g>
	<text transform="matrix(1 0 0 1 627.391 315.9469)" class="st7 st8">Zithoogte</text>
	<path id="Path_69" class="st9" d="M857.2,459.8h-27c-6.2,0-11.2,4-11.2,8.9l0,0c0,4.9,5,8.9,11.2,8.9h27c6.2,0,11.2-4,11.2-8.9l0,0
		C868.4,463.7,863.4,459.8,857.2,459.8z"/>
	<path id="Path_72" class="st10" d="M750,300.6l1.1,65.9c0.1,5.4,4.6,9.8,10,9.7l4.9-0.1c5.4-0.1,9.8-4.6,9.7-10l-1.2-65.9
		c-0.1-5.4-4.6-9.8-10-9.7l-4.9,0.1C754.2,290.7,749.9,295.1,750,300.6C750,300.6,750,300.6,750,300.6z"/>
</g>
</svg>
