<?xml version="1.0" encoding="utf-8"?>
<!-- Generator: Adobe Illustrator 25.0.0, SVG Export Plug-In . SVG Version: 6.00 Build 0)  -->
<svg version="1.1" id="Layer_1" xmlns="http://www.w3.org/2000/svg" xmlns:xlink="http://www.w3.org/1999/xlink" x="0px" y="0px"
	 viewBox="0 0 186 186" style="enable-background:new 0 0 186 186;" xml:space="preserve">
<style type="text/css">
	.st0{fill:#DC2972;}
	.st1{fill:none;stroke:#FFFFFF;stroke-width:1.3;stroke-miterlimit:4.002;}
	.st2{fill:none;stroke:#FFFFFF;stroke-width:1.4;stroke-miterlimit:4.002;}
	.st3{fill:#FFFFFF;}
	.st4{fill:none;stroke:#FFFFFF;stroke-width:2;}
</style>
<g id="Weegschaal" transform="translate(-64 -200)">
	<g id="GewichtMeten-V1.1" transform="translate(64 200)">
		<g id="Group_35" transform="translate(0 0)">
			<path id="Path_77" d="M66.5,42h53.7c1.5,0,2.8-1.2,2.8-2.8c0,0,0,0,0,0V18.3c0-1.5-1.2-2.8-2.8-2.8c0,0,0,0,0,0H66.5
				c-1.5,0-2.8,1.2-2.8,2.8c0,0,0,0,0,0v21C63.7,40.8,64.9,42,66.5,42z M69.2,36.8V21h47.5v15.8L69.2,36.8z"/>
			<path id="Path_78" d="M172.7,0H13.3C6,0,0,6.4,0,14.1v157.7c0,7.8,6,14.1,13.3,14.1h159.4c7.3,0,13.3-6.4,13.3-14.1V14.2
				C186,6.4,180,0,172.7,0z M172.7,180.5H13.2c-4.3,0-7.7-3.9-7.7-8.6V14.1c0-4.7,3.5-8.6,7.7-8.6h159.5c4.3,0,7.7,3.9,7.7,8.6
				v157.7C180.5,176.6,177,180.5,172.7,180.5z"/>
		</g>
	</g>
	<g id="right_food" transform="translate(179.353 256.93)">
		<g id="Rectangle_104" transform="translate(30.196 10.505)">
			<path id="Path_103" class="st0" d="M5.9,0.3L5.9,0.3C3.8,0.2,2,1.8,1.8,3.8c0,0,0,0,0,0L0,29.8c-0.1,2.1,1.4,3.9,3.5,4
				c0,0,0,0,0,0l0,0c2.1,0.1,3.9-1.4,4-3.5c0,0,0,0,0,0L9.3,4.4C9.5,2.3,7.9,0.5,5.9,0.3z"/>
			<path id="Path_104" class="st1" d="M5.8,0L5.8,0C4-0.1,2.4,1.3,2.2,3.1L0.4,29c-0.1,1.8,1.3,3.4,3.1,3.6c0,0,0,0,0,0l0,0
				c1.8,0.1,3.4-1.3,3.6-3.1L8.9,3.6C9.1,1.7,7.7,0.1,5.8,0z"/>
		</g>
		<g id="Rectangle_106" transform="translate(37.328 14.66)">
			<path id="Path_105" class="st0" d="M5,1L5,1C3.1,0.7,1.5,2.4,1.3,4.6L0,18.5c-0.2,2.2,1.1,4.2,3,4.4h0c1.8,0.2,3.5-1.4,3.7-3.6
				L8,5.3C8.2,3.1,6.8,1.2,5,1z"/>
			<path id="Path_106" class="st2" d="M5,0L5,0C3.3,0,1.9,1.4,1.8,3.1c0,0,0,0,0,0.1l-1.3,14c-0.3,1.8,0.9,3.4,2.6,3.8l0,0
				c1.7,0,3.2-1.3,3.2-3.1c0,0,0,0,0-0.1L7.6,3.8C7.9,2.1,6.8,0.4,5,0z"/>
		</g>
		<g id="Rectangle_101" transform="translate(2.22 0)">
			<path id="Path_107" class="st0" d="M8.9,0.4L8.9,0.4C5.2,0.1,2,2.9,1.8,6.6c0,0,0,0,0,0L0,31.6c-0.3,3.7,2.5,6.9,6.2,7.2
				c0,0,0,0,0,0l0,0c3.7,0.3,6.9-2.5,7.2-6.2c0,0,0,0,0,0l1.8-25.1C15.4,3.8,12.6,0.6,8.9,0.4C8.9,0.4,8.9,0.4,8.9,0.4z"/>
			<path id="Path_108" class="st2" d="M8.9,0L8.9,0C5.4-0.2,2.4,2.4,2.2,5.8c0,0,0,0,0,0L0.4,30.9c-0.2,3.5,2.4,6.5,5.8,6.7
				c0,0,0,0,0,0l0,0c3.5,0.2,6.5-2.4,6.7-5.8c0,0,0,0,0,0l1.8-25.1C15,3.3,12.4,0.3,8.9,0C8.9,0,8.9,0,8.9,0z"/>
		</g>
		<g id="Rectangle_102" transform="translate(14.789 3.317)">
			<path id="Path_109" class="st0" d="M6.6,0.4L6.6,0.4C4.2,0.1,2.1,1.8,1.7,4.2L0,25.8c0,2.4,1.8,4.3,4.2,4.4c0,0,0,0,0.1,0l0,0
				c2.4,0.3,4.6-1.4,4.9-3.8l1.7-21.6C11,2.4,9.1,0.4,6.6,0.4C6.7,0.4,6.7,0.4,6.6,0.4z"/>
			<path id="Path_110" class="st1" d="M6.6,0L6.6,0C4.4-0.2,2.4,1.3,2.1,3.5L0.4,25.1c0,2.2,1.7,3.9,3.8,4c0,0,0,0,0.1,0l0,0
				c2.2,0.2,4.2-1.3,4.5-3.5L10.5,4C10.5,1.8,8.8,0.1,6.6,0C6.6,0,6.6,0,6.6,0z"/>
		</g>
		<g id="Rectangle_103" transform="translate(22.881 6.545)">
			<path id="Path_111" class="st0" d="M6.3,0.3L6.3,0.3C4,0.2,2,1.9,1.8,4.2L0,30.1c-0.2,2.3,1.6,4.3,3.9,4.5l0,0
				c2.3,0.2,4.3-1.6,4.5-3.9l1.8-25.9C10.3,2.5,8.6,0.5,6.3,0.3C6.3,0.3,6.3,0.3,6.3,0.3z"/>
			<path id="Path_112" class="st1" d="M6.3,0L6.3,0c-2.1-0.1-3.9,1.4-4,3.5c0,0,0,0,0,0L0.4,29.4c-0.1,2.1,1.4,3.9,3.5,4
				c0,0,0,0,0,0l0,0C6,33.6,7.8,32,8,29.9c0,0,0,0,0,0L9.8,4C9.9,2,8.3,0.2,6.3,0C6.3,0,6.3,0,6.3,0z"/>
		</g>
		<g id="Path_103-2" transform="translate(0 26.974)">
			<path id="Path_113" class="st0" d="M18.6,70.9c2.7,0.2,5.3-0.2,7.9-1.1c2.4-0.9,4.5-2.2,6.3-4c3.8-3.8,6.1-8.8,6.3-14.2v0
				l4.7-47.4c0.1-2.1-1.4-3.9-3.5-4c0,0-37.3-0.9-37.5,1.2L0.5,47.8v0c-0.2,2.8,0.1,5.6,0.9,8.3c0.8,2.6,2,5.1,3.6,7.2
				C8.2,67.7,13.2,70.5,18.6,70.9z"/>
			<path id="Path_114" class="st3" d="M0.1,47.8L2.5,1.3c0-0.1,0-0.1,0-0.2c0.3,0,0.6-0.1,0.9-0.2c0,0.1-0.1,0.3-0.1,0.4L0.9,47.8v0
				C0.7,50.6,1,53.4,1.8,56c0.7,2.6,2,5,3.6,7.1c3.1,4.3,8,7,13.3,7.4c2.6,0.2,5.2-0.2,7.7-1.1c2.3-0.9,4.4-2.2,6.2-3.9
				c3.7-3.7,5.9-8.7,6.2-13.9v0l4.7-47.4c0-0.1,0-0.1,0-0.2c0.2-0.2,0.3-0.5,0.3-0.8l0.1,0c0.1,0,0.2,0,0.3-0.1
				c0.1,0.4,0.1,0.8,0.1,1.1l-4.7,47.4c-0.8,11.5-9.5,20.5-21,19.7S-0.8,59.3,0.1,47.8z"/>
		</g>
		<path id="Path_115" class="st4" d="M44.5,27.1l-0.8,7.5"/>
	</g>
	<g id="Left_food" transform="translate(88.88 256.93)">
		<g id="Rectangle_104-2" transform="translate(5.749 10.505)">
			<path id="Path_103-3" class="st0" d="M3.5,0.3L3.5,0.3c2.1-0.1,3.9,1.4,4,3.5c0,0,0,0,0,0l1.8,25.9c0.1,2.1-1.4,3.9-3.5,4
				c0,0,0,0,0,0l0,0c-2.1,0.1-3.9-1.4-4-3.5c0,0,0,0,0,0L0,4.4C-0.1,2.3,1.4,0.5,3.5,0.3z"/>
			<path id="Path_104-2" class="st1" d="M3.5,0L3.5,0C5.4-0.1,7,1.3,7.1,3.1c0,0,0,0,0,0L8.9,29c0.1,1.8-1.3,3.4-3.1,3.6
				c0,0,0,0,0,0l0,0c-1.8,0.1-3.4-1.3-3.6-3.1L0.4,3.6C0.3,1.7,1.7,0.1,3.5,0z"/>
		</g>
		<g id="Rectangle_106-2" transform="translate(0 14.66)">
			<path id="Path_105-2" class="st0" d="M3,1L3,1c1.8-0.2,3.5,1.4,3.7,3.6L8,18.5c0.2,2.2-1.1,4.2-3,4.4l0,0
				c-1.8,0.2-3.5-1.4-3.7-3.6L0,5.3C-0.2,3.1,1.1,1.2,3,1z"/>
			<path id="Path_106-2" class="st2" d="M2.9,0L2.9,0c1.7,0,3.2,1.3,3.2,3.1c0,0,0,0,0,0.1l1.3,14c0.3,1.8-0.9,3.4-2.6,3.8l0,0
				c-1.7,0-3.2-1.3-3.2-3.1c0,0,0,0,0-0.1L0.3,3.8C0,2.1,1.2,0.4,2.9,0z"/>
		</g>
		<g id="Rectangle_101-2" transform="translate(27.917 0)">
			<path id="Path_107-2" class="st0" d="M6.2,0.4L6.2,0.4c3.7-0.3,6.9,2.5,7.2,6.2c0,0,0,0,0,0l1.8,25.1c0.3,3.7-2.5,6.9-6.2,7.2
				c0,0,0,0,0,0l0,0c-3.7,0.3-6.9-2.5-7.2-6.2c0,0,0,0,0,0L0,7.5C-0.2,3.8,2.5,0.6,6.2,0.4C6.2,0.4,6.2,0.4,6.2,0.4z"/>
			<path id="Path_108-2" class="st2" d="M6.3,0L6.3,0c3.5-0.2,6.5,2.4,6.7,5.8c0,0,0,0,0,0l1.8,25.1c0.2,3.5-2.4,6.5-5.8,6.7
				c0,0,0,0,0,0l0,0c-3.5,0.2-6.5-2.4-6.7-5.8c0,0,0,0,0,0L0.4,6.7C0.2,3.3,2.8,0.3,6.3,0C6.3,0,6.3,0,6.3,0z"/>
		</g>
		<g id="Rectangle_102-2" transform="translate(19.597 3.317)">
			<path id="Path_109-2" class="st0" d="M4.3,0.4L4.3,0.4c2.4-0.3,4.6,1.4,4.9,3.8l1.7,21.6c0,2.4-1.8,4.3-4.2,4.4c0,0,0,0-0.1,0
				l0,0c-2.4,0.3-4.6-1.4-4.9-3.8L0,4.8C0,2.4,1.8,0.4,4.3,0.4C4.2,0.4,4.3,0.4,4.3,0.4z"/>
			<path id="Path_110-2" class="st1" d="M4.3,0L4.3,0c2.2-0.2,4.2,1.3,4.5,3.5l1.7,21.6c0,2.2-1.7,3.9-3.8,4c0,0,0,0-0.1,0l0,0
				c-2.2,0.2-4.2-1.3-4.5-3.5L0.4,4C0.4,1.8,2.1,0.1,4.3,0C4.3,0,4.3,0,4.3,0z"/>
		</g>
		<g id="Rectangle_103-2" transform="translate(12.226 6.545)">
			<path id="Path_111-2" class="st0" d="M3.9,0.3L3.9,0.3c2.3-0.2,4.3,1.6,4.5,3.9l1.8,25.9c0.2,2.3-1.6,4.3-3.9,4.5l0,0
				C4,34.8,2,33,1.8,30.7L0,4.8C-0.2,2.5,1.6,0.5,3.9,0.3z"/>
			<path id="Path_112-2" class="st1" d="M3.9,0L3.9,0C6-0.1,7.8,1.4,8,3.5c0,0,0,0,0,0l1.8,25.9c0.1,2.1-1.4,3.9-3.5,4c0,0,0,0,0,0
				l0,0c-2.1,0.1-3.9-1.4-4-3.5c0,0,0,0,0,0L0.4,4C0.3,2,1.8,0.2,3.9,0C3.9,0,3.9,0,3.9,0z"/>
		</g>
		<g id="Path_103-4" transform="translate(1.03 26.974)">
			<path id="Path_113-2" class="st0" d="M25.7,70.9c-2.7,0.2-5.3-0.2-7.9-1.1c-2.4-0.9-4.5-2.2-6.3-4C7.7,62.1,5.4,57,5.1,51.7v0
				L0.4,4.2c-0.1-2.1,1.4-3.9,3.5-4c0,0,37.3-0.9,37.5,1.1l2.4,46.5v0c0.2,2.8-0.1,5.6-0.9,8.3c-0.8,2.6-2,5.1-3.6,7.2
				C36.1,67.7,31.1,70.5,25.7,70.9z"/>
			<path id="Path_114-2" class="st3" d="M44.2,47.8L41.8,1.3c0-0.1,0-0.1,0-0.2c-0.3,0-0.6-0.1-0.9-0.2c0,0.1,0.1,0.3,0.1,0.4
				l2.4,46.5v0c0.2,2.7-0.1,5.5-0.9,8.1c-0.7,2.6-2,5-3.6,7.1c-3.1,4.3-8,7-13.3,7.4c-2.6,0.2-5.2-0.2-7.7-1.1
				c-2.3-0.9-4.4-2.2-6.2-3.9C8,61.8,5.8,56.9,5.5,51.6v0L0.8,4.2c0-0.1,0-0.1,0-0.2C0.7,3.7,0.6,3.5,0.5,3.2l-0.1,0
				c-0.1,0-0.2,0-0.3-0.1C0,3.5,0,3.9,0,4.3l4.7,47.4c0.8,11.5,9.5,20.5,21,19.7S45,59.3,44.2,47.8z"/>
		</g>
		<path id="Path_116" class="st4" d="M1,27.8l0.3,7.6"/>
	</g>
</g>
</svg>
